<svg xmlns="http://www.w3.org/2000/svg" viewBox="0 0 30 30">
  <g>
    <path d="M30,30H0V0h30V30z M1,29H29V1H1V29z" />
    <path d="M26.6,26.1H4V3.9h22.6V26.1z M4.9,25.1h20.7V4.8H4.9V25.1z" />
    <path d="M7.6,22.5l-0.2,0c-0.2-0.1-0.3-0.4-0.2-0.6l6.8-14.4c0.1-0.2,0.4-0.3,0.6-0.2c0.2,0.1,0.3,0.4,0.2,0.6L8,22.2C7.9,22.4,7.7,22.5,7.6,22.5z" />
    <path d="M18.2,17.2c-0.2,0-0.4-0.1-0.4-0.3l-3.8-9.1c-0.1-0.2,0-0.5,0.3-0.6c0.2-0.1,0.5,0,0.6,0.3l3.8,9.1c0.1,0.2,0,0.5-0.3,0.6L18.2,17.2z" />
    <path d="M21,17.2h-2.8c-0.3,0-0.5-0.2-0.5-0.5s0.2-0.5,0.5-0.5H21c0.3,0,0.5,0.2,0.5,0.5S21.2,17.2,21,17.2z" />
    <polygon points="20.3,14.5 24.2,16.8 20.3,19" />
  </g>
</svg>